Coordinates
version=1
nRows=13
nColumns=36
inDegrees=yes

Units are S.I. units (second, meters, Newtons, ...)
If the header above contains a line with 'inDegrees', this indicates whether rotational values are in degrees (yes) or radians (no).

endheader
time	pelvis_tilt	pelvis_list	pelvis_rotation	pelvis_tx	pelvis_ty	pelvis_tz	hip_flexion_r	hip_adduction_r	hip_rotation_r	knee_angle_r	knee_angle_r_beta	ankle_angle_r	subtalar_angle_r	mtp_angle_r	hip_flexion_l	hip_adduction_l	hip_rotation_l	knee_angle_l	knee_angle_l_beta	ankle_angle_l	subtalar_angle_l	mtp_angle_l	lumbar_extension	lumbar_bending	lumbar_rotation	arm_flex_r	arm_add_r	arm_rot_r	elbow_flex_r	pro_sup_r	arm_flex_l	arm_add_l	arm_rot_l	elbow_flex_l	pro_sup_l
      0.00000000	      5.23831814	      1.69662075	     -2.32421076	      1.16775010	      0.93842837	      0.11054550	     -1.57474527	      1.36567673	      3.82121114	     10.48065341	      0.18292191	     10.02906443	     -8.04571196	     -5.86555859	     -2.36105369	     -1.58387843	      0.35833351	     14.64115915	      0.25553643	     12.41178232	     -9.02167518	     -5.86555859	    -12.05770251	     -0.73224421	     -6.23792252	     37.03171354	      2.42459895	     47.58910501	    116.19779423	     75.24890523	     51.19109012	      9.43516598	     62.68584969	    105.81860472	     86.59494888
      0.01666670	      5.72062979	      1.33686693	     -2.83776562	      1.17377259	      0.93495397	      0.10567096	     -2.40231157	      1.88566652	      6.40099814	     10.31102050	      0.17996126	     10.39104062	    -10.01006259	     -6.06352698	     -3.82991137	     -1.81270502	     -0.34265868	     12.70474530	      0.22173964	     13.73446379	     -8.22807971	     -6.06352698	    -13.27534468	      0.94984374	     -2.11706881	     38.38242906	     -1.39877540	     53.55008057	    122.30835185	     84.77619537	     51.68968946	     11.18213007	     62.59086174	    107.78961651	     97.53335982
      0.03333330	      5.73051550	      1.20261131	     -2.92877482	      1.16843495	      0.93496511	      0.10927086	     -2.19620980	      2.29771716	      6.40828281	     10.54878071	      0.18411096	     10.24532197	     -8.85162413	     -6.35792870	     -4.07188164	     -2.18145982	      0.04677578	     11.75098463	      0.20509337	     13.36254886	     -8.73801702	     -6.35792870	    -13.49041666	      1.28503476	     -1.03839462	     38.62342637	     -0.18508368	     52.05149789	    123.34353940	     94.05208326	     52.40540655	     11.61026759	     63.05437249	    108.14221282	    106.62672517
      0.05000000	      4.91610398	      1.28471804	     -2.53669226	      1.16809821	      0.93139259	      0.10925229	     -1.12629268	      2.39134981	      6.04769187	     10.86273224	      0.18959044	     10.32624426	     -8.82854841	     -6.89992294	     -2.98732703	     -2.47832526	      0.23347516	     11.75383373	      0.20514310	     14.11768077	     -8.58961083	     -6.89992294	    -12.62460244	      1.58107296	     -0.86707828	     38.49276202	      0.71864363	     52.65716187	    122.47810872	     98.84172620	     52.45042575	     11.37060206	     63.09835379	    109.03198486	    107.16740183
      0.06666670	      4.12508022	      1.42192346	     -2.29697027	      1.16782314	      0.93409655	      0.10969814	     -0.03765478	      2.37470935	      5.57646592	     11.30637732	      0.19733351	     10.48103228	     -8.59199706	     -7.06296121	     -1.80970719	     -2.56282101	      0.55744129	     12.23475759	      0.21353680	     14.61461100	     -9.12502390	     -7.06296121	    -11.93842842	      1.66808601	     -0.65411116	     37.79032352	      0.96641871	     53.70403949	    121.84043997	     96.56246099	     52.02784541	     11.17681101	     63.21310704	    109.53087790	    105.50053378
      0.08333330	      3.23517020	      1.57890117	     -2.21837000	      1.16808746	      0.93338587	      0.10972215	      1.27361785	      2.24468038	      4.80990565	     11.98358910	      0.20915309	     10.68868572	     -7.69901057	     -7.25334826	     -0.48722336	     -2.64847450	     -0.03180402	     12.99637798	      0.22682959	     15.48154893	     -8.29067875	     -7.25334826	    -11.10983301	      1.82400899	     -0.70432597	     37.02535807	      1.70931209	     54.33410094	    120.46748179	     99.48310111	     51.74094683	     10.93655582	     62.82343074	    110.04685389	    107.06928484
      0.10000000	      2.24157796	      1.82570954	     -2.18442208	      1.16835117	      0.93209017	      0.10986687	      2.68945407	      2.03554263	      4.09483173	     12.70438023	      0.22173326	     10.80741840	     -7.13205572	     -7.32563054	      0.93551510	     -2.54930123	     -0.46910676	     13.77587384	      0.24043436	     15.91643400	     -7.87780831	     -7.32563054	    -10.11545008	      1.84198406	     -0.84252604	     36.32524241	      2.48093354	     54.99299420	    119.83807363	     98.35919719	     51.36669906	     10.66746372	     62.57979713	    110.66894893	    107.00631705
      0.11666670	      1.41923874	      2.03293880	     -2.17885328	      1.16883065	      0.93107018	      0.10986533	      3.89368048	      1.88846699	      3.68466347	     13.37276782	      0.23339883	     10.89484487	     -6.87040438	     -7.38337565	      2.09321460	     -2.48205295	     -1.14176938	     14.42033805	      0.25168238	     16.35537049	     -7.04716515	     -7.38337565	     -9.26169148	      1.87765467	     -0.85605354	     35.73139497	      3.11515940	     55.64712434	    119.55046697	     97.83981144	     51.01454960	     10.46552084	     62.43615561	    111.20953675	    106.65783208
      0.13333330	      0.81103605	      2.18140758	     -2.05954979	      1.16901869	      0.93033456	      0.10982291	      4.77027875	      1.77808369	      3.04829998	     13.89544826	      0.24252132	     11.14721433	     -6.19651909	     -7.41740306	      2.98894489	     -2.44144471	     -1.53315750	     14.83314932	      0.25888729	     16.44630081	     -6.55497651	     -7.41740306	     -8.75583590	      1.95325667	     -1.18686839	     35.35815264	      3.50779767	     56.76639788	    119.05426779	     96.63904901	     50.89883880	     10.34949392	     62.21801328	    111.14621844	    106.60409468
      0.15000000	      0.46331884	      2.27819271	     -2.07950670	      1.16970080	      0.93274892	      0.10942317	      5.25472627	      1.74468066	      2.88740733	     14.18402396	      0.24755792	     11.16378801	     -6.06047521	     -7.42962932	      3.37114740	     -2.42285698	     -2.01640447	     14.84451680	      0.25908569	     16.31410834	     -6.09548739	     -7.42962932	     -8.55593411	      2.00228094	     -1.26681127	     34.90284964	      3.55185022	     57.41583804	    119.36137920	     95.00886185	     50.73080114	     10.24502670	     62.33552233	    111.02411989	    104.00611769
      0.16666670	     -0.08125835	      2.39025445	     -1.97815956	      1.16968773	      0.92913934	      0.10981357	      6.03848284	      1.68895665	      2.64638606	     14.58445029	      0.25454668	     11.36169837	     -5.91512067	     -7.43838398	      4.06959448	     -2.40197551	     -2.38082837	     14.99995667	      0.26179863	     16.37496381	     -5.60489022	     -7.43838398	     -8.05412124	      2.00954867	     -1.30075405	     35.01208088	      3.66451077	     57.82921016	    120.12285597	     96.91166703	     50.76128722	     10.33493749	     62.18644591	    111.16451537	    105.45539133
      0.18333330	     -0.62683544	      2.44347997	     -1.84732982	      1.17027729	      0.92867062	      0.10960517	      6.72704420	      1.68875182	      2.51749768	     14.86027844	      0.25936079	     11.63171297	     -5.80021242	     -7.44168342	      4.72006987	     -2.40533861	     -2.46246799	     15.06431612	      0.26292192	     16.33682801	     -5.60888828	     -7.44168342	     -7.26430589	      2.05620318	     -1.48400647	     35.25321764	      3.95379883	     57.69835569	    120.27643029	     95.88179574	     50.59344126	     10.27706092	     62.19367557	    110.85273756	    104.02441629
      0.20000000	     -0.58871252	      2.53756437	     -1.76024383	      1.17036174	      0.92837985	      0.10898922	      6.84198655	      1.59457971	      2.36960026	     15.15650159	      0.26453086	     11.84092027	     -5.60803237	     -7.45762809	      4.81936768	     -2.40036086	     -3.11744999	     15.23667874	      0.26593021	     16.42362558	     -4.83605228	     -7.45762809	     -7.58633005	      2.00305853	     -1.30868326	     35.54445365	      3.71149927	     57.36835650	    121.67687329	     96.24575276	     50.86124814	     10.41137874	     62.35156798	    111.49441374	    105.02654018
